<?xml version="1.0" encoding="UTF-8"?>
<svg version="1.1" xmlns="http://www.w3.org/2000/svg" width="243" height="199">
<path d="M0 0 C80.19 0 160.38 0 243 0 C243 65.67 243 131.34 243 199 C162.81 199 82.62 199 0 199 C0 133.33 0 67.66 0 0 Z " fill="#181918" transform="translate(0,0)"/>
<path d="M0 0 C2.9375 2.4375 2.9375 2.4375 5 5 C5.495 5.495 5.495 5.495 6 6 C5.56954442 12.42145386 4.27605967 18.09599344 2.27734375 24.19140625 C1.87993736 25.43747902 1.87993736 25.43747902 1.47450256 26.70872498 C0.63675279 29.32926924 -0.2126411 31.94586093 -1.0625 34.5625 C-1.63684584 36.35196398 -2.21042084 38.14167556 -2.78320312 39.93164062 C-4.17991434 44.29067122 -5.58707231 48.64620011 -7 53 C-6.3766124 52.98667633 -5.75322479 52.97335266 -5.11094666 52.95962524 C1.39416817 52.82658753 7.89889484 52.73626616 14.4050293 52.67041016 C16.8309703 52.64029034 19.25680288 52.59938536 21.68237305 52.54736328 C25.17523992 52.47434167 28.66666372 52.44049403 32.16015625 52.4140625 C33.23959 52.38309479 34.31902374 52.35212708 35.4311676 52.32022095 C41.59908587 52.31748196 45.19905661 52.95186537 49.68968201 57.31747437 C51.96694111 60.24160946 52.93443869 62.57385151 53.5 66.25 C52.37371182 74.69716135 44.7951563 80.38987297 38.93481445 86.08056641 C36.14125726 88.80037605 33.48818671 91.55795965 30.96484375 94.53125 C24.7732516 101.70344209 17.83802795 108.21436946 11.10644531 114.87304688 C1.98343326 123.86729498 1.98343326 123.86729498 -6.60351562 133.36767578 C-8.71497874 135.83572515 -10.96220447 138.13171866 -13.25 140.4375 C-14.08015625 141.28183594 -14.9103125 142.12617188 -15.765625 142.99609375 C-18.63551847 145.56996674 -20.56210508 145.95134501 -24.375 146.375 C-28 146 -28 146 -30.875 143.625 C-34.0137417 139.74773084 -34.0137417 139.74773084 -33.96569824 137.13352966 C-33.35933232 131.7021459 -32.22256804 126.72499074 -30.53125 121.53515625 C-30.17069519 120.3960807 -30.17069519 120.3960807 -29.80285645 119.23399353 C-29.04306107 116.84091867 -28.27155426 114.45180596 -27.5 112.0625 C-26.98233922 110.4344779 -26.46540578 108.80622435 -25.94921875 107.17773438 C-22.19629648 95.39259296 -22.19629648 95.39259296 -21 93 C-21.62782883 93.00666183 -22.25565765 93.01332367 -22.9025116 93.02018738 C-29.43991981 93.08658382 -35.97723214 93.13181863 -42.51489258 93.16479492 C-44.95438528 93.17987654 -47.3938509 93.20034469 -49.83325195 93.22631836 C-53.34072559 93.26272812 -56.84784054 93.27973289 -60.35546875 93.29296875 C-61.44522507 93.30845261 -62.53498138 93.32393646 -63.65776062 93.33988953 C-73.19792775 93.34200746 -73.19792775 93.34200746 -77 90 C-79.61735459 86.32155571 -80.82089727 83.98506504 -81.625 79.5625 C-80.15831387 71.20238905 -72.7473089 65.57818502 -66.87890625 59.90625 C-64.77719259 57.83861034 -62.84535913 55.68141637 -60.93359375 53.4375 C-55.27088744 46.89166184 -48.97864266 40.92381812 -42.82470703 34.84521484 C-37.24151188 29.32425537 -31.70800462 23.82161074 -26.60986328 17.84130859 C-23.62663975 14.42919578 -20.40058687 11.25640426 -17.1875 8.0625 C-16.52041016 7.39154297 -15.85332031 6.72058594 -15.16601562 6.02929688 C-14.52728516 5.39185547 -13.88855469 4.75441406 -13.23046875 4.09765625 C-12.65707764 3.52539307 -12.08368652 2.95312988 -11.49291992 2.36352539 C-8.18342219 -0.65913116 -4.26682029 -0.76018063 0 0 Z " fill="#00FB86" transform="translate(138,23)"/>
<path d="M0 0 C1 2 1 2 0.37915039 4.41088867 C0.03875732 5.4032251 -0.30163574 6.39556152 -0.65234375 7.41796875 C-1.19858398 9.05282227 -1.19858398 9.05282227 -1.75585938 10.72070312 C-2.53724943 13.01321115 -3.32106402 15.30489436 -4.10742188 17.59570312 C-6.85157741 25.63498855 -6.85157741 25.63498855 -7 34 C-5.60042803 36.28484306 -5.60042803 36.28484306 -4 38 C-4 38.66 -4 39.32 -4 40 C-0.45088173 41.60152781 2.36364951 42.26099726 6.24926758 42.31884766 C7.78028862 42.34865219 7.78028862 42.34865219 9.34223938 42.37905884 C10.4319957 42.39061005 11.52175201 42.40216125 12.64453125 42.4140625 C13.7694548 42.43342865 14.89437836 42.4527948 16.0533905 42.4727478 C19.63968366 42.5324371 23.22600909 42.57888694 26.8125 42.625 C29.24675864 42.66318953 31.68100392 42.70224183 34.11523438 42.7421875 C40.07670405 42.83812998 46.03825453 42.92320875 52 43 C42.72429566 53.8502726 33.02051263 64.09088907 22.875 74.125 C12.7731933 83.99962324 12.7731933 83.99962324 3.33032227 94.49365234 C1.44527491 96.62812512 -0.70315614 98.3295681 -3 100 C-1.59018054 92.91833607 0.51608699 86.26881486 2.96484375 79.48632812 C4.45775294 75.19513349 5.48110393 71.61172479 5 67 C3.57378316 64.28873616 3.57378316 64.28873616 2 62 C2 61.34 2 60.68 2 60 C-1.54911827 58.39847219 -4.36364951 57.73900274 -8.24926758 57.68115234 C-9.78028862 57.65134781 -9.78028862 57.65134781 -11.34223938 57.62094116 C-12.4319957 57.60938995 -13.52175201 57.59783875 -14.64453125 57.5859375 C-15.7694548 57.56657135 -16.89437836 57.5472052 -18.0533905 57.5272522 C-21.63968366 57.4675629 -25.22600909 57.42111306 -28.8125 57.375 C-31.24675864 57.33681047 -33.68100392 57.29775817 -36.11523438 57.2578125 C-42.07670405 57.16187002 -48.03825453 57.07679125 -54 57 C-53.60276733 56.53710571 -53.20553467 56.07421143 -52.79626465 55.59729004 C-49.54720026 51.81183706 -49.54720026 51.81183706 -46.32226562 48.00585938 C-40.2518934 40.88049832 -33.47843456 34.41749191 -26.82470703 27.84521484 C-21.18176141 22.26517093 -15.58304991 16.70368463 -10.43115234 10.65820312 C-8.41798183 8.32564528 -6.25720567 6.16094097 -4.0625 4 C-3.29035156 3.236875 -2.51820312 2.47375 -1.72265625 1.6875 C-1.15417969 1.130625 -0.58570313 0.57375 0 0 Z " fill="#181E1B" transform="translate(125,46)"/>
</svg>
